<?xml version="1.0"?>
<svg xmlns="http://www.w3.org/2000/svg" xmlns:xlink="http://www.w3.org/1999/xlink" xmlns:svgjs="http://svgjs.com/svgjs" version="1.1" width="512" height="512" x="0" y="0" viewBox="0 0 512 512" style="enable-background:new 0 0 512 512" xml:space="preserve" class=""><g><g xmlns="http://www.w3.org/2000/svg" id="outline"><path d="M472,280c-10.285,0-18.285,6.957-21.023,9.688L413.785,312H384a8,8,0,0,0-8,8v16H358.777l-6.886-41.316a8,8,0,0,0-15.782,2.632L342.557,336h-23.62l-5.832-40.836a24,24,0,0,0-13.027-18.07l-24.5-12.25A8,8,0,0,0,272,264H240a8,8,0,0,0-3.578.844l-24.5,12.25A24,24,0,0,0,198.9,295.168L193.063,336h-23.62l6.448-38.684a8,8,0,1,0-15.782-2.632L153.223,336H136V320a8,8,0,0,0-8-8H98.215L61.023,289.688C58.285,286.957,50.285,280,40,280a24.027,24.027,0,0,0-24,24v96a8,8,0,0,0,5.469,7.59l2.531.844V464H16v16H496V464h-8V392.7l3.152-1.351A8,8,0,0,0,496,384V304A24.027,24.027,0,0,0,472,280ZM400,430.873,418.4,464H400ZM400,352h24a8,8,0,0,0,3.578-.844L448,340.945v14.621l-48,30ZM214.73,297.438a8.014,8.014,0,0,1,4.348-6.032L241.887,280h28.226l22.813,11.406a8.018,8.018,0,0,1,4.344,6.028L302.777,336H288V304a8,8,0,0,0-8-8H232a8,8,0,0,0-8,8v32H209.223ZM272,336H240V312h32Zm112,16v16H128V352Zm-80,33.371V384h48v80H281.062l6.536-52.285,9.371-9.371A23.841,23.841,0,0,0,304,385.371Zm-88.969,16.973,9.371,9.371L230.938,464H160V384h48v1.371A23.841,23.841,0,0,0,215.031,402.344ZM112,417.49,103.664,389.7a8.006,8.006,0,0,0-3.547-4.562L64,363.469V340.945l20.422,10.211A8,8,0,0,0,88,352h24Zm-72-3.724,25.469,8.488L77.4,464H40ZM94.035,464,79.691,413.8a8,8,0,0,0-5.16-5.391L32,394.234V304a8.011,8.011,0,0,1,8-8c4.188,0,8.793,3.98,10.039,5.336a7.912,7.912,0,0,0,1.844,1.523l40,24A8.014,8.014,0,0,0,96,328h24v8H89.887L59.578,320.844A8,8,0,0,0,48,328v40a8,8,0,0,0,3.883,6.859l37.344,22.407L109.246,464ZM128,464V384h16v80Zm119.062,0-7.125-56.992a7.98,7.98,0,0,0-2.281-4.664l-11.312-11.313a7.951,7.951,0,0,1-2.344-5.66V384h64v1.371a7.951,7.951,0,0,1-2.344,5.66l-11.312,11.313a7.987,7.987,0,0,0-2.282,4.664L264.937,464ZM368,464V384h16v80Zm68.707,0-34.023-61.242,57.554-35.973A8.006,8.006,0,0,0,464,360V328a8,8,0,0,0-11.578-7.156L422.113,336H392v-8h24a8.014,8.014,0,0,0,4.117-1.141l40-24a7.912,7.912,0,0,0,1.844-1.523C462.969,300.211,467.633,296,472,296a8.011,8.011,0,0,1,8,8v74.727l-51.152,21.921a8,8,0,0,0-4.61,9.293L437.754,464ZM472,464H454.247l-12.833-51.332L472,399.56Z" fill="#8b0f24" data-original="#000000" style="" class=""/><path d="M280,134.629V160a8,8,0,0,0,12.437,6.656L320.4,148.011A23.986,23.986,0,0,0,344,168h29.578l45.984,30.656A8,8,0,0,0,432,192V166.629A24.041,24.041,0,0,0,448,144V96a24.027,24.027,0,0,0-24-24H392V64a24.027,24.027,0,0,0-24-24H288a24.027,24.027,0,0,0-24,24v48A24.04,24.04,0,0,0,280,134.629ZM424,88a8.011,8.011,0,0,1,8,8v48a8.011,8.011,0,0,1-8,8,8,8,0,0,0-8,8v17.051l-35.563-23.707A8.005,8.005,0,0,0,376,152H344a8.011,8.011,0,0,1-8-8v-6.385L338.422,136H368a24.027,24.027,0,0,0,24-24V88Zm-88,32V96a8.011,8.011,0,0,1,8-8h32v24a8.011,8.011,0,0,1-8,8ZM280,64a8.011,8.011,0,0,1,8-8h80a8.011,8.011,0,0,1,8,8v8H344a24.027,24.027,0,0,0-24,24v33.052l-24,16V128a8,8,0,0,0-8-8,8.011,8.011,0,0,1-8-8Z" fill="#8b0f24" data-original="#000000" style="" class=""/><path d="M56,160v24a8,8,0,0,0,12.438,6.656L114.422,160H152a24.027,24.027,0,0,0,24-24V88a24.027,24.027,0,0,0-24-24H56A24.027,24.027,0,0,0,32,88v48A24.027,24.027,0,0,0,56,160ZM48,88a8.011,8.011,0,0,1,8-8h96a8.011,8.011,0,0,1,8,8v48a8.011,8.011,0,0,1-8,8H112a8.011,8.011,0,0,0-4.438,1.344L72,169.051V152a8,8,0,0,0-8-8H56a8.011,8.011,0,0,1-8-8Z" fill="#8b0f24" data-original="#000000" style="" class=""/><rect x="64" y="104" width="16" height="16" fill="#8b0f24" data-original="#000000" style="" class=""/><rect x="96" y="104" width="16" height="16" fill="#8b0f24" data-original="#000000" style="" class=""/><rect x="128" y="104" width="16" height="16" fill="#8b0f24" data-original="#000000" style="" class=""/><path d="M256,256a32,32,0,1,0-32-32A32.036,32.036,0,0,0,256,256Zm0-48a16,16,0,1,1-16,16A16.016,16.016,0,0,1,256,208Z" fill="#8b0f24" data-original="#000000" style="" class=""/><path d="M432,240a32,32,0,1,0,32-32A32.036,32.036,0,0,0,432,240Zm32-16a16,16,0,1,1-16,16A16.016,16.016,0,0,1,464,224Z" fill="#8b0f24" data-original="#000000" style="" class=""/><path d="M48,272a32,32,0,1,0-32-32A32.036,32.036,0,0,0,48,272Zm0-48a16,16,0,1,1-16,16A16.016,16.016,0,0,1,48,224Z" fill="#8b0f24" data-original="#000000" style="" class=""/></g></g></svg>
