<?xml version="1.0"?>
<svg xmlns="http://www.w3.org/2000/svg" xmlns:xlink="http://www.w3.org/1999/xlink" xmlns:svgjs="http://svgjs.com/svgjs" version="1.1" width="512" height="512" x="0" y="0" viewBox="0 0 512 512.001" style="enable-background:new 0 0 512 512" xml:space="preserve" class=""><g><path xmlns="http://www.w3.org/2000/svg" d="m457.085938 68.828125-21.878907-19.265625 21.878907-19.261719c3.402343-3 4.566406-7.675781 2.96875-11.917969-1.605469-4.246093-5.570313-6.988281-10.105469-6.988281h-90.539063v-3.890625c0-4.144531-3.359375-7.503906-7.503906-7.503906s-7.503906 3.359375-7.503906 7.503906v101.203125l-61.628906 33.464844c-.339844-2.710937-1.152344-5.375-2.4375-7.882813l-8.683594-16.953124c-5.960938-11.640626-20.28125-16.253907-31.914063-10.296876l-6.714843 3.4375c-5.640626 2.890626-9.816407 7.796876-11.761719 13.828126-1.945313 6.027343-1.425781 12.453124 1.464843 18.089843l8.683594 16.957031c2.027344 3.957032 5.023438 7.089844 8.546875 9.285157-4.609375 6.207031-6.796875 13.839843-9.046875 21.769531l-1.617187 5.726562c-1.128907 3.988282 1.191406 8.136719 5.179687 9.261719.679688.195313 1.367188.285157 2.042969.285157 3.273437 0 6.28125-2.15625 7.21875-5.464844l1.617187-5.714844c3.289063-11.597656 5.308594-17.808594 11.738282-21.300781l11.527344-6.261719 1.421874-.726562c.472657-.242188.914063-.515626 1.363282-.785157l82.15625-44.613281c-.519532 10.269531-6.046875 19.972656-15.148438 25.5l-53.425781 32.460938c-.0625.035156-.125.070312-.183594.109374l-16.628906 10.101563c-3.539063 2.152344-4.667969 6.769531-2.515625 10.3125 2.027344 3.339844 6.246094 4.527344 9.6875 2.851563l-12.617188 38.140624-9.222656 3.78125-25.078125 10.277344 7.226563-25.546875c1.125-3.988281-1.191406-8.136719-5.179688-9.265625-3.992187-1.132812-8.136718 1.191406-9.265625 5.179688l-11.417969 40.378906c-.148437.519531-.246093 1.089844-.269531 1.632812l-2.988281 54.890626c-.089844 2.09375.355469 6.050781-.613281 8.09375l-33.1875 69.820312h-24.117188c-14.128906 0-25.621093 11.492188-25.621093 25.617188v21.660156c-3.234376-1.480469-6.824219-2.308594-10.609376-2.308594h-61.246093c-14.125 0-25.617188 11.488281-25.617188 25.617188v26.875h-18.015625c-4.144531 0-7.503906 3.359374-7.503906 7.503906 0 4.144531 3.359375 7.503906 7.503906 7.503906h442.4375c4.144532 0 7.503906-3.359375 7.503906-7.503906 0-4.144532-3.359374-7.503906-7.503906-7.503906h-19.515625v-193.417969c0-14.125-11.492187-25.617188-25.617187-25.617188h-45.398438v-130.910156c8.320313-11.277344 11.402344-26.058594 7.539063-40.105469-.605469-2.207031-2.1875-4.019531-4.296875-4.914062-1.035156-.441406-2.144532-.636719-3.242188-.59375v-13.699219h90.535156c4.539063 0 8.503907-2.742187 10.105469-6.984375 1.601563-4.242188.4375-8.921875-2.964843-11.921875zm-221.539063 60.085937c.714844-2.214843 2.246094-4.019531 4.316406-5.078124l6.714844-3.4375c1.265625-.648438 2.617187-.957032 3.953125-.957032 3.164062 0 6.222656 1.730469 7.761719 4.734375l8.6875 16.957031c2.027343 3.960938.714843 8.761719-2.890625 11.1875l-2.445313 1.324219-5.160156 2.644531c-4.269531 2.1875-9.527344.492188-11.714844-3.78125l-8.6875-16.953124c-1.058593-2.070313-1.25-4.429688-.535156-6.640626zm-15.078125 272.925782c-2.550781-1.164063-5.324219-1.925782-8.238281-2.195313l8.238281-10.941406zm35.628906-60.464844c3.609375-4.324219 4.605469-9.375 5.410156-13.445312.203126-.96875 3.90625-21.195313 3.90625-21.195313s3.503907 2.183594 3.871094 2.339844c.253906.113281.433594.363281.460938.65625l4.082031 41.496093h-25.148437zm44.375-41.417969-6.335937 51.234375h-5.230469l-4.222656-42.929687c-.539063-5.5-3.90625-10.300781-8.839844-12.6875l-7.546875-4.785157 5.027344-27.863281s21.179687 25.160157 21.671875 25.800781c4.382812 5.699219 5.882812 7.980469 5.476562 11.230469zm-81.054687 36.316407c1.515625-4.5625 2.21875-9.207032 2.101562-13.929688l2.726563-50.0625 34.707031-14.222656-6.308594 34.945312c-.019531.09375-.039062.191406-.050781.285156l-5.21875 28.894532c-.679688 2.992187-1.273438 7.53125-3.140625 9.996094l-50.707031 67.351562h-4.179688zm-178.890625 133.839843c0-5.847656 4.757812-10.605469 10.609375-10.605469h61.246093c5.851563 0 10.613282 4.757813 10.613282 10.605469v26.878907h-82.46875zm97.472656 0v-44.964843c0-5.851563 4.761719-10.609376 10.613281-10.609376h61.246094c5.851563 0 10.609375 4.757813 10.609375 10.609376v71.84375h-82.464844v-26.878907zm277.417969-166.539062v193.417969h-82.464844v-44.992188c0-4.144531-3.359375-7.503906-7.503906-7.503906-4.148438 0-7.507813 3.359375-7.507813 7.503906v44.992188h-82.464844v-120.152344c0-5.847656 4.757813-10.605469 10.609376-10.605469h61.246093c5.851563 0 10.609375 4.757813 10.609375 10.605469v37.617187c0 4.144531 3.359375 7.503907 7.503906 7.503907 4.148438 0 7.503907-3.359376 7.503907-7.503907v-110.882812c0-5.851563 4.761719-10.609375 10.613281-10.609375h8.265625c.023437 0 .050781.003906.078125.003906.023438 0 .050781-.003906.074219-.003906h52.824219c5.851562 0 10.613281 4.761718 10.613281 10.609375zm-71.855469-25.617188c-14.125 0-25.617188 11.492188-25.617188 25.617188v49.960937c-2.6875-1.226562-5.617187-2.003906-8.699218-2.230468l6.121094-49.5c1.203124-9.648438-3.71875-16.042969-8.476563-22.230469-.503906-.65625-29.671875-35.289063-29.671875-35.289063l17.894531-54.101562 49.289063-29.945313v117.71875zm15.847656-205.234375v-46.316406h79.386719l-17.097656 15.054688c-2.328125 2.050781-3.664063 5.003906-3.664063 8.105468 0 3.101563 1.335938 6.054688 3.664063 8.105469l17.097656 15.054687h-79.386719zm0 0" fill="#c31432" data-original="#000000" style="" class=""/></g></svg>
