<?xml version="1.0"?>
<svg xmlns="http://www.w3.org/2000/svg" xmlns:xlink="http://www.w3.org/1999/xlink" xmlns:svgjs="http://svgjs.com/svgjs" version="1.1" width="512" height="512" x="0" y="0" viewBox="0 0 512 512" style="enable-background:new 0 0 512 512" xml:space="preserve"><g>
<g xmlns="http://www.w3.org/2000/svg">
	<g>
		<g>
			<path d="M171.2,139.2c-3.2-3.2-8-3.2-11.2,0l-31.2,31.2l-8-8c-3.2-3.2-8-3.2-11.2,0c-3.2,3.2-3.2,8,0,11.2l13.6,13.6     c1.6,1.6,4,2.4,5.6,2.4c2.4,0,4-0.8,5.6-2.4l36.8-36.8C174.4,147.2,174.4,141.6,171.2,139.2z" fill="#240b36" data-original="#000000" style=""/>
			<path d="M160,211.2l-31.2,31.2l-8-8c-3.2-3.2-8-3.2-11.2,0c-3.2,3.2-3.2,8,0,11.2l13.6,13.6c1.6,1.6,4,2.4,5.6,2.4     c2.4,0,4-0.8,5.6-2.4l36.8-36.8c3.2-3.2,3.2-8,0-11.2C168,208,162.4,208,160,211.2z" fill="#240b36" data-original="#000000" style=""/>
			<path d="M312,272c-4.8,0-8,3.2-8,8s3.2,8,8,8h16c4.8,0,8-3.2,8-8s-3.2-8-8-8H312z" fill="#240b36" data-original="#000000" style=""/>
			<path d="M360,272c-4.8,0-8,3.2-8,8s3.2,8,8,8h48v114.4l-69.6,28l-80-88l-52.8,26.4c-8.8,4-18.4,4.8-27.2,1.6l-10.4-3.2     c-1.6-0.8-2.4-2.4-2.4-3.2s0-2.4,1.6-3.2l68-49.6c0.8,0,2.4-0.8,3.2-1.6c0,0,0-0.8,0.8-0.8L268,288h12c4.8,0,8-3.2,8-8     s-3.2-8-8-8h-18.4l-28.8,20.8L211.2,272H112h-8H0v144h48c4.8,0,8-3.2,8-8s-3.2-8-8-8H16V288h80v112H80c-4.8,0-8,3.2-8,8     s3.2,8,8,8h21.6l109.6,86.4c5.6,4.8,12,7.2,19.2,7.2c4,0,8-0.8,11.2-2.4c3.2-1.6,5.6-4,8-5.6l8.8,8.8c0.8,0.8,0.8,0.8,1.6,0.8     l0.8,0.8c0.8,0,2.4,0,3.2,0s1.6,0,3.2-0.8c0,0,0.8,0,0.8-0.8c0.8,0,0.8-0.8,1.6-0.8l71.2-63.2l77.6-31.2H512V272H360z M315.2,448     l-69.6-69.6c-3.2-3.2-8-3.2-11.2,0s-3.2,8,0,11.2l68.8,68.8l-13.6,12l-68-68c-3.2-3.2-8-3.2-11.2,0s-3.2,8,0,11.2l67.2,67.2     l-13.6,12l-66.4-66.4c-3.2-3.2-8-3.2-11.2,0s-3.2,8,0,11.2l52,52c-1.6,0.8-2.4,1.6-4,2.4c-4,1.6-9.6,0.8-13.6-2.4L112,404V288     h92.8l14.4,14.4L157.6,348c-5.6,4-8.8,12-8,19.2c0.8,7.2,6.4,13.6,13.6,16l9.6,3.2c12.8,4,27.2,3.2,40-3.2l42.4-20.8l70.4,77.6     L315.2,448z M496,400h-72V288h72V400z" fill="#240b36" data-original="#000000" style=""/>
			<path d="M176,88c0-4.8-3.2-8-8-8h-8c-4.8,0-8,3.2-8,8s3.2,8,8,8h8C172.8,96,176,92.8,176,88z" fill="#240b36" data-original="#000000" style=""/>
			<path d="M192,96h8c4.8,0,8-3.2,8-8s-3.2-8-8-8h-8c-4.8,0-8,3.2-8,8S187.2,96,192,96z" fill="#240b36" data-original="#000000" style=""/>
			<path d="M128,96h8c4.8,0,8-3.2,8-8s-3.2-8-8-8h-8c-4.8,0-8,3.2-8,8S123.2,96,128,96z" fill="#240b36" data-original="#000000" style=""/>
			<path d="M72,264c4.8,0,8-4,8-8V16h272v72c0,4.8,3.2,8,8,8h72v152c0,4.8,3.2,8,8,8s8-4,8-8V88c0-2.4-0.8-4-2.4-5.6l-80-80     C364,0.8,362.4,0,360,0H72c-4.8,0-8,4-8,8v248C64,260.8,67.2,264,72,264z M368,28l52,52h-52V28z" fill="#240b36" data-original="#000000" style=""/>
			<path d="M240,56c0-4.8-3.2-8-8-8H128c-4.8,0-8,3.2-8,8s3.2,8,8,8h104C236.8,64,240,60.8,240,56z" fill="#240b36" data-original="#000000" style=""/>
			<path d="M320,192c4.8,0,8-3.2,8-8s-3.2-8-8-8h-8c-4.8,0-8,3.2-8,8s3.2,8,8,8H320z" fill="#240b36" data-original="#000000" style=""/>
			<path d="M352,192c4.8,0,8-3.2,8-8s-3.2-8-8-8h-8c-4.8,0-8,3.2-8,8s3.2,8,8,8H352z" fill="#240b36" data-original="#000000" style=""/>
			<path d="M288,192c4.8,0,8-3.2,8-8s-3.2-8-8-8h-8c-4.8,0-8,3.2-8,8s3.2,8,8,8H288z" fill="#240b36" data-original="#000000" style=""/>
			<path d="M384,144H216c-4.8,0-8,3.2-8,8s3.2,8,8,8h168c4.8,0,8-3.2,8-8S388.8,144,384,144z" fill="#240b36" data-original="#000000" style=""/>
			<path d="M216,192h40c4.8,0,8-3.2,8-8s-3.2-8-8-8h-40c-4.8,0-8,3.2-8,8S211.2,192,216,192z" fill="#240b36" data-original="#000000" style=""/>
			<path d="M392,232c0-4.8-3.2-8-8-8H216c-4.8,0-8,3.2-8,8s3.2,8,8,8h168C388.8,240,392,236.8,392,232z" fill="#240b36" data-original="#000000" style=""/>
		</g>
	</g>
</g>
<g xmlns="http://www.w3.org/2000/svg">
</g>
<g xmlns="http://www.w3.org/2000/svg">
</g>
<g xmlns="http://www.w3.org/2000/svg">
</g>
<g xmlns="http://www.w3.org/2000/svg">
</g>
<g xmlns="http://www.w3.org/2000/svg">
</g>
<g xmlns="http://www.w3.org/2000/svg">
</g>
<g xmlns="http://www.w3.org/2000/svg">
</g>
<g xmlns="http://www.w3.org/2000/svg">
</g>
<g xmlns="http://www.w3.org/2000/svg">
</g>
<g xmlns="http://www.w3.org/2000/svg">
</g>
<g xmlns="http://www.w3.org/2000/svg">
</g>
<g xmlns="http://www.w3.org/2000/svg">
</g>
<g xmlns="http://www.w3.org/2000/svg">
</g>
<g xmlns="http://www.w3.org/2000/svg">
</g>
<g xmlns="http://www.w3.org/2000/svg">
</g>
</g></svg>
