<?xml version="1.0" encoding="utf-8"?>
<!-- Generator: Adobe Illustrator 19.0.0, SVG Export Plug-In . SVG Version: 6.00 Build 0)  -->
<svg version="1.1" id="Capa_1" xmlns:svgjs="http://svgjs.com/svgjs"
	 xmlns="http://www.w3.org/2000/svg" xmlns:xlink="http://www.w3.org/1999/xlink" x="0px" y="0px" viewBox="-41 164.9 512 512"
	 style="enable-background:new -41 164.9 512 512;" xml:space="preserve">
<style type="text/css">
	.st0{fill:#2F1442;}
</style>
<g>
	<path class="st0" d="M364.7,637.2h-29.8c-4.1,0-7.5,4.2-7.5,9.2c0,5,3.4,9.2,7.5,9.2h29.8c4.1,0,7.5-4.2,7.5-9.2
		C372.1,641.4,368.8,637.2,364.7,637.2z"/>
	<path class="st0" d="M234.8,636.8l-24-25.9c-3.1-3.3-7.9-3-10.6,0.8c-2.7,3.8-2.4,9.7,0.7,13l24,25.9c1.4,1.5,3.2,2.3,4.9,2.3
		c2.1,0,4.2-1.1,5.6-3.2C238.2,646,237.9,640.1,234.8,636.8z"/>
	<path class="st0" d="M134.2,637.2h-29.7c-4.1,0-7.5,4.2-7.5,9.2c0,5,3.4,9.2,7.5,9.2h29.8c4.1,0,7.5-4.2,7.5-9.2
		C141.7,641.4,138.3,637.2,134.2,637.2z"/>
	<path class="st0" d="M4.4,636.8l-24-25.9c-3.1-3.3-7.9-3-10.6,0.8c-2.7,3.8-2.4,9.7,0.7,13l24,25.9c1.4,1.5,3.2,2.3,4.9,2.3
		c2.1,0,4.2-1.1,5.6-3.2C7.8,646,7.5,640.1,4.4,636.8z"/>
	<path class="st0" d="M468.9,207.7c-1.8-3-4.5-4.9-7.4-5.4l-103.2-16c-4.3-0.7-8.5,1.9-10.7,6.4c-2.2,4.6-2,10.3,0.5,14.6l23.8,41
		l-109.5,80.2l-60.5-130.3c-2.1-4.5-5.7-7.5-9.8-8.4s-8.3,0.7-11.5,4.2L73.7,312.4c-3.1,3.4-3.3,9.2-0.6,13
		c2.8,3.8,7.5,4.1,10.6,0.7l106-117.2l62.6,134.8c1.3,2.7,3.3,4.7,5.8,5.4c2.5,0.8,5,0.4,7.2-1.2l119.3-87.3c2.3-1.7,4-4.6,4.6-7.8
		c0.6-3.3,0-6.8-1.6-9.5L366,206.1l89.5,13.9L439,330.7L417.3,293c-2.9-5-8.4-6.5-12.7-3.4l-38.8,27.9c-1.4,0.7-2.7,1.4-4,2.2
		L346,331c-1.5,1-2.8,2.2-4,3.5l-14.5,10.3c-1,0.3-2.1,0.5-3.1,0.8c-0.6,0.3-1.1,0.5-1.7,0.8l-81.5,60l-55.9-109
		c-4-7.8-12.1-10.2-18.6-5.5l-72.9,53.5l0,0c-0.6,0.3-1.1,0.5-1.7,0.8l-81.4,60.2l51.8-57.3c3.1-3.4,3.3-9.2,0.6-13
		c-2.8-3.8-7.5-4.1-10.6-0.7l-88.1,97.5c-4,4.5-4.6,11.6-1.4,16.8c2,3.3,5.1,5.1,8.3,5.1c1.8,0,3.6-0.7,5.3-1.9l4.4-3.3
		c2.5,4.5,5.9,8.1,10.1,10.5c7.2,4.3,15.3,4.2,22.5-0.1L47.1,440l-17.4,105c-0.3,1.6-1,3.1-2,4.2c-3.2,3.3-3.5,9.1-0.9,13
		c1.5,2,3.6,3.2,5.7,3.2c1.7,0,3.4-0.7,4.9-2.2c3.6-3.7,6-8.8,7-14.5l4.3-25.8c4.2,8.5,10,15.8,17,21.5L59.2,564
		c-1,2.3-3.1,4.1-6.8,6.6c-0.5,0.4-0.9,0.7-1.4,1L8.6,601.8l-4-3.9l9.5-10c3.1-3.3,3.5-9.1,0.8-13c-2.7-3.8-7.4-4.3-10.6-1l-13.2,14
		c-2.4,2.6-3.8,6.2-3.8,10.2c0,3.9,1.5,7.6,3.9,10l9.6,9.7c2.1,2,4.8,3.2,7.4,3.2c2,0,4-0.7,5.8-1.9l44.5-31.4c0,0,0.1,0,0.1-0.1
		c0.5-0.4,0.9-0.7,1.4-1c4.7-3.3,9.9-7.2,12.8-15c0.1-0.1,0.1-0.3,0.1-0.4l5.8-17.4L95,565.3c3.3,2.3,5.2,6.9,4.9,11.5L97,615.7
		c-0.2,3.1,0.6,6,2.3,8.2c1.7,2.2,4,3.5,6.5,3.5h17.9c4.1,0,7.6-3.4,8.6-8.4l11.1-58.2c1.9-7.3,1.1-15.1-2.1-21.5
		c-0.1-0.1-0.2-0.4-0.3-0.5l-36.5-63.6l20-66.8v-0.1c1.6-5.7,2.5-11.5,2.6-17.3c1.1,0.3,2.2,0.4,3.3,0.4c4,0,8-1.4,11.5-3.8
		l15.8-11.3c11-7.8,14.7-25.2,8.5-38.8l-3.6-7.7c-1.6-3.4-3.8-6.4-6.4-8.7l17.2-12.7l55.1,107.5l-17.1,12.9c-2.8,2-4.2,6-3.5,10
		c1.7,9.6,6.8,17.6,13.9,21.8c7.2,4.3,15.3,4.2,22.5-0.1l66-39.8c3.7-2.2,5.3-7.7,3.4-12.3c-1.8-4.6-6.3-6.5-10-4.2L237.5,444
		c-3,1.9-6.5,1.9-9.5,0c-1.4-0.8-2.7-2-3.6-3.4l18.2-13.4l88.9-64c1.6,0.4,3,1.4,4,3l0.3,0.5c0.4,1.1,0.8,2.2,1.3,3.2l3.6,7.7l0,0
		c2.3,8,2.3,16.7,0,24.9l-19.3,64.5l-28.6-4.1l-3.7-0.5l0.2-1.1c0.8-5-1.8-9.9-5.9-10.8c-4.1-1-8,2.2-8.8,7.3L260,545
		c-0.3,1.6-1,3.1-2,4.2l-36.5,38.5c-2.4,2.6-3.8,6.2-3.8,10.2c0,3.9,1.5,7.6,3.9,10l9.5,9.7c2.1,2.2,4.8,3.3,7.4,3.3
		c2,0,4-0.7,5.8-1.9l44.5-31.4c0,0,0.1,0,0.1-0.1c0.5-0.4,0.9-0.7,1.4-1c4.7-3.3,9.9-7.2,12.8-15c0.1-0.1,0.1-0.3,0.1-0.4l5.8-17.4
		l16.3,11.5c3.3,2.3,5.2,6.9,4.9,11.5l-2.9,38.9c-0.2,3.1,0.6,6,2.3,8.2c1.7,2.2,4,3.5,6.5,3.5H354c4.1,0,7.6-3.4,8.6-8.4l11.1-58.2
		c1.9-7.3,1.1-15.1-2.1-21.6c-0.1-0.1-0.2-0.4-0.3-0.5l-36.5-63.6l20-66.8v-0.1c1.6-5.7,2.5-11.5,2.6-17.3c1.1,0.3,2.2,0.4,3.3,0.4
		c4,0,8-1.4,11.5-3.8l15.8-11.3c11-7.8,14.7-25.2,8.5-38.8l-3.6-7.7c-1.3-2.8-3.1-5.4-5.1-7.5l19.7-14l24.6,42.7
		c2.5,4.5,6.9,6.5,11.2,5.3c4.3-1.1,7.5-5.3,8.3-10.5l19.1-127.9C471.4,214.4,470.7,210.6,468.9,207.7z M129,555.6
		c-0.1,0.3-0.2,0.7-0.2,0.8l-10.1,52.8h-6.2l2.3-30.7c0.9-11.8-4-23.4-12.3-29.2l-26.8-18.9c-14.4-10.3-22.2-30-19.9-50.1l5.7,0.9
		l30.4,4.3l36.7,63.8C129.4,551.3,129.6,553.5,129,555.6z M110.3,402.5L91,467l-30-4.3l-2.3-0.4l5.2-32.2l15.7-9.5
		c3.7-2.2,5.3-7.7,3.4-12.3c-1.8-4.6-6.3-6.5-10-4.2l-18.9,11.4c0,0-0.1,0-0.1,0.1L7,443.8c-3,1.9-6.5,1.9-9.5,0
		c-1.4-0.8-2.7-2-3.6-3.4L99.5,363c2.2-0.3,4.3,0.8,5.7,3l0.3,0.5c0.4,1.1,0.8,2.2,1.3,3.2l3.6,7.7l0,0
		C112.6,385.4,112.7,394.1,110.3,402.5z M150.2,360.6l-15.8,11.3c-1.9,1.4-4.1,1.7-6.2,1c-1.8-0.7-3.3-1.9-4.4-3.7
		c-1.3-3.9-3-7.8-5-11.4c-0.8-4.2,0.7-8.6,3.8-10.9l15.8-11.3c1.3-0.8,2.6-1.4,4-1.4c0.7,0,1.4,0.1,2.1,0.4c2.1,0.7,3.8,2.3,4.9,4.7
		l3.6,7.7C155.3,351.8,154.1,357.8,150.2,360.6z M289.7,564.1c-1,2.3-3.1,4.1-6.8,6.6c-0.5,0.4-0.9,0.7-1.4,1L239,601.8l-3.9-3.9
		l32.8-34.6c3.5-3.7,6-8.8,7-14.5l4.3-25.8c4.2,8.5,10,15.8,17,21.5L289.7,564.1z M359.5,555.6c-0.1,0.3-0.2,0.7-0.2,0.8l-10.1,52.8
		h-6.3l2.3-30.7c0.9-11.8-4-23.4-12.3-29.2l-26.8-18.9c-14.4-10.3-22.2-30-19.9-50.1l7.2,1l28.9,4.2l36.7,63.8
		C359.9,551.3,360,553.5,359.5,555.6z M372.9,334.2c0.7,0,1.4,0.1,2.1,0.4c2.1,0.7,3.8,2.3,4.9,4.7l3.6,7.7c2.2,4.7,0.9,10.9-3,13.6
		l-15.8,11.3c-1.9,1.4-4.1,1.7-6.2,1c-1.8-0.7-3.3-1.9-4.4-3.7c-1.3-3.9-3-7.8-5-11.4c-0.6-3.1,0.1-6.1,1.6-8.6l20.4-14.7
		C371.9,334.3,372.4,334.2,372.9,334.2z"/>
</g>
</svg>
